<svg width="72" height="20" viewBox="0 0 72 20" fill="none" xmlns="http://www.w3.org/2000/svg">
<path d="M2.21484 0.5C2.59104 0.499402 3.04405 0.548897 3.40039 0.837891C3.77988 1.14585 3.93193 1.62372 3.93262 2.20312V14.3252L3.94238 14.6094C3.98556 15.2379 4.16978 15.6224 4.41602 15.8594C4.70113 16.1336 5.16186 16.2996 5.87695 16.3018H13.3271C13.7328 16.3018 14.1539 16.3665 14.4717 16.6338C14.8101 16.9185 14.9192 17.3328 14.9199 17.7637C14.9206 18.1981 14.8125 18.6145 14.4746 18.9014C14.1565 19.1714 13.7343 19.2373 13.3291 19.2373H5.83789V19.2363C4.52248 19.2398 3.1737 19.0977 2.15332 18.375C1.09284 17.6238 0.500072 16.3352 0.5 14.3262V2.20312L0.506836 1.99121C0.541116 1.50777 0.699458 1.10906 1.03125 0.839844C1.38676 0.551474 1.8395 0.501278 2.21387 0.5H2.21484Z" fill="black" stroke="black"/>
<path d="M29.709 3.68164C30.0891 3.681 30.5409 3.73177 30.8896 4.03027C31.2554 4.34333 31.3879 4.82015 31.3867 5.38281V16.3926L31.376 16.7168C31.3524 17.0305 31.2882 17.3125 31.1553 17.5605C31.0165 17.8194 30.8223 18.0056 30.5967 18.1514L30.3613 18.2852C29.7904 18.57 27.4096 19.4832 24.6523 19.498C20.7367 19.5188 17.9579 18.3468 16.1855 15.9043C14.5499 13.6501 13.8329 10.3928 13.7441 6.23047L13.7344 5.38574C13.7331 4.80103 13.8786 4.32062 14.2549 4.0127C14.6086 3.72334 15.0586 3.68165 15.415 3.68164C15.8347 3.68164 16.2906 3.74655 16.6318 4.06055C16.9805 4.38152 17.0943 4.85321 17.0996 5.37988C17.1305 8.73139 17.4427 11.5363 18.5283 13.4961C19.0633 14.4618 19.7839 15.2188 20.7588 15.7383C21.7382 16.2602 23.0043 16.5573 24.6494 16.5557C26.0438 16.5536 27.2989 16.2612 28.0303 15.9453V5.38477C28.0303 4.80826 28.1723 4.32998 28.5439 4.02051C28.8952 3.72804 29.3445 3.68229 29.709 3.68164Z" fill="black" stroke="black"/>
<path d="M39.7075 3.46484C43.019 3.47902 46.149 4.50572 48.4536 6.80957C50.7606 9.11593 52.1807 12.643 52.188 17.54C52.1886 18.1241 52.0423 18.6034 51.6665 18.9111C51.313 19.2005 50.8644 19.2418 50.5073 19.2412V19.2422C50.0877 19.2422 49.6318 19.1778 49.2905 18.8643C48.9849 18.5834 48.8601 18.1869 48.8306 17.7393L48.8237 17.5449C48.817 16.8121 48.7718 16.0927 48.6919 15.3945H36.9995V17.542L36.9927 17.7539C36.9598 18.2357 36.8098 18.6355 36.4849 18.9062C36.1334 19.1989 35.6841 19.2451 35.3188 19.2451C34.9394 19.2451 34.4879 19.1937 34.1382 18.8965C33.7707 18.5841 33.6343 18.1076 33.6343 17.542L33.6362 6.12207C33.6356 5.61781 33.7302 5.22037 33.9663 4.91504C34.1957 4.61847 34.5088 4.48161 34.7319 4.38672L34.7378 4.38477C36.3294 3.73293 38.25 3.45868 39.7075 3.46484ZM39.7046 6.4082C38.6378 6.40826 37.6647 6.60445 36.9985 6.80859V12.457H48.0786C47.5335 10.7623 46.6756 9.32706 45.4497 8.28418C44.0806 7.11959 42.2117 6.4082 39.7046 6.4082Z" fill="black" stroke="black"/>
<path d="M62.5137 3.4707C65.0741 3.54652 67.4723 4.16161 69.1328 4.96582L69.2705 5.03613C69.589 5.20741 69.8774 5.43824 70.0273 5.78125C70.2042 6.18622 70.1333 6.6169 69.96 7.03223C69.8319 7.33894 69.6608 7.59022 69.4043 7.74902C69.1497 7.90648 68.8825 7.92675 68.6768 7.92676C68.4546 7.92676 68.2195 7.8512 68.042 7.78613C67.8559 7.7179 67.6467 7.62643 67.4863 7.56055C66.2123 7.03728 64.3539 6.41504 62.001 6.41504C59.9897 6.41506 58.6867 6.62432 57.9043 6.9375C57.1358 7.24522 56.9825 7.59524 56.9824 7.87109C56.9824 8.21397 57.1162 8.41092 57.3018 8.55176C57.5117 8.71101 57.8075 8.80945 58.1152 8.86816H58.1162C59.323 9.09983 60.8855 9.36462 62.5664 9.6416C64.3908 9.94232 65.1844 10.0709 65.7236 10.1816L66.1201 10.2666C67.0637 10.4771 68.1152 10.7855 68.9707 11.3398C69.9792 11.9934 70.7252 12.9983 70.7178 14.5273C70.7135 15.4411 70.4721 16.2333 70.0137 16.8984C69.5578 17.5598 68.9062 18.0677 68.1221 18.4502C66.7612 19.1139 64.9513 19.4239 62.8945 19.4873L61.999 19.5C57.8616 19.4915 55.2317 18.239 54.1787 17.6055L54.1777 17.6045C53.8726 17.4199 53.5983 17.1813 53.4492 16.8408C53.2971 16.493 53.3106 16.1202 53.418 15.7422C53.554 15.2606 53.9522 14.6594 54.7061 14.6592C55.1955 14.6592 55.6173 14.9163 55.9131 15.0713C57.499 15.9021 59.2681 16.5469 61.999 16.5469C63.9858 16.5469 65.3244 16.3511 66.1494 16.0059C66.5551 15.836 66.8082 15.6411 66.96 15.4434C67.1063 15.2525 67.1816 15.0291 67.1816 14.749C67.1816 14.2385 66.7132 13.6536 65.4971 13.4004V13.3994C65.0771 13.3127 64.616 13.2298 64.0801 13.1377L62.2109 12.8232L58.4424 12.2021C57.5904 12.0625 56.3621 11.8312 55.3418 11.2578C54.2929 10.6683 53.4295 9.69172 53.4268 8.1084C53.4255 7.14113 53.7302 6.34079 54.2666 5.69922C54.7955 5.06669 55.5272 4.61348 56.3477 4.28906C57.9799 3.6437 60.0764 3.4617 61.999 3.46289L62.5137 3.4707Z" fill="black" stroke="black"/>
</svg>
