<svg width="40" height="40" viewBox="0 0 40 40" fill="none" xmlns="http://www.w3.org/2000/svg">
<path d="M34.8166 16.296H33.7332C33.367 16.2699 33.0157 16.1401 32.7206 15.9216C32.4254 15.7032 32.1986 15.4053 32.0666 15.0627V14.996C31.9084 14.6499 31.8587 14.264 31.9242 13.8891C31.9896 13.5143 32.1671 13.168 32.4332 12.896L33.1999 12.1293C33.544 11.7774 33.7366 11.3048 33.7366 10.8127C33.7366 10.3205 33.544 9.84789 33.1999 9.49599L30.4832 6.89599C30.1313 6.55192 29.6587 6.35926 29.1666 6.35926C28.6744 6.35926 28.2018 6.55192 27.8499 6.89599L27.0832 7.66266C26.8126 7.92535 26.4693 8.10074 26.0979 8.16612C25.7265 8.23149 25.3439 8.18384 24.9999 8.02933C24.6573 7.89731 24.3593 7.67046 24.1409 7.37531C23.9225 7.08015 23.7927 6.72891 23.7666 6.36266V5.17933C23.7667 4.93067 23.7168 4.68453 23.6196 4.45562C23.5225 4.22671 23.3803 4.01972 23.2014 3.84703C23.0224 3.67434 22.8106 3.53949 22.5784 3.45054C22.3461 3.36159 22.0984 3.32037 21.8499 3.32933H18.1499C17.6592 3.32933 17.1887 3.52424 16.8418 3.87118C16.4948 4.21812 16.2999 4.68868 16.2999 5.17933V6.26266C16.2738 6.62891 16.144 6.98015 15.9255 7.27531C15.7071 7.57046 15.4092 7.79731 15.0666 7.92933H14.9999C14.6654 8.0968 14.2886 8.16087 13.9176 8.11338C13.5466 8.06588 13.1981 7.90898 12.9166 7.66266L12.1499 6.89599C11.798 6.55192 11.3254 6.35926 10.8332 6.35926C10.3411 6.35926 9.86846 6.55192 9.51657 6.89599L6.8999 9.51266C6.55582 9.86456 6.36317 10.3372 6.36317 10.8293C6.36317 11.3215 6.55582 11.7941 6.8999 12.146L7.66657 12.9127C7.92926 13.1833 8.10465 13.5265 8.17002 13.898C8.2354 14.2694 8.18774 14.6519 8.03323 14.996C7.90122 15.3386 7.67436 15.6366 7.37921 15.855C7.08406 16.0734 6.73281 16.2032 6.36657 16.2293H5.18323C4.93457 16.2292 4.68843 16.2791 4.45952 16.3762C4.23061 16.4734 4.02363 16.6156 3.85094 16.7945C3.67825 16.9734 3.5434 17.1853 3.45445 17.4175C3.3655 17.6497 3.32427 17.8975 3.33323 18.146V21.846C3.33323 22.3366 3.52814 22.8072 3.87509 23.1541C4.22203 23.5011 4.69258 23.696 5.18323 23.696H6.26657C6.63281 23.7221 6.98406 23.8519 7.27921 24.0703C7.57436 24.2888 7.80122 24.5867 7.93323 24.9293C8.09143 25.2754 8.14107 25.6613 8.07562 26.0362C8.01017 26.4111 7.83269 26.7573 7.56657 27.0293L6.7999 27.796C6.45582 28.1479 6.26317 28.6205 6.26317 29.1127C6.26317 29.6048 6.45582 30.0774 6.7999 30.4293L9.41657 33.046C9.76846 33.3901 10.2411 33.5827 10.7332 33.5827C11.2254 33.5827 11.698 33.3901 12.0499 33.046L12.8166 32.2793C13.101 32.0037 13.465 31.8247 13.857 31.7678C14.249 31.711 14.6489 31.7792 14.9999 31.9627C15.3425 32.0947 15.6405 32.3215 15.8589 32.6167C16.0773 32.9118 16.2071 33.2631 16.2332 33.6293V34.7127C16.2191 34.9696 16.2588 35.2267 16.3497 35.4674C16.4406 35.7081 16.5807 35.9273 16.7611 36.1108C16.9415 36.2943 17.1581 36.4382 17.3973 36.5332C17.6364 36.6282 17.8928 36.6723 18.1499 36.6627H21.8499C22.3405 36.6627 22.8111 36.4677 23.158 36.1208C23.505 35.7739 23.6999 35.3033 23.6999 34.8127V33.7293C23.726 33.3631 23.8558 33.0118 24.0742 32.7167C24.2927 32.4215 24.5906 32.1947 24.9332 32.0627C25.2793 31.9045 25.6652 31.8548 26.0401 31.9203C26.415 31.9857 26.7612 32.1632 27.0332 32.4293L27.7999 33.196C28.1518 33.5401 28.6244 33.7327 29.1166 33.7327C29.6087 33.7327 30.0813 33.5401 30.4332 33.196L33.0499 30.5793C33.394 30.2274 33.5866 29.7548 33.5866 29.2627C33.5866 28.7705 33.394 28.2979 33.0499 27.946L32.2832 27.1793C32.0076 26.8949 31.8286 26.5309 31.7717 26.1389C31.7149 25.7469 31.7831 25.347 31.9666 24.996C32.0986 24.6534 32.3254 24.3554 32.6206 24.137C32.9157 23.9186 33.267 23.7888 33.6332 23.7627H34.7166C34.9735 23.7767 35.2306 23.7371 35.4713 23.6462C35.712 23.5553 35.9312 23.4152 36.1147 23.2348C36.2982 23.0544 36.4421 22.8377 36.5371 22.5986C36.6321 22.3595 36.6762 22.1031 36.6666 21.846V18.146C36.6666 17.6553 36.4717 17.1848 36.1247 16.8378C35.7778 16.4909 35.3072 16.296 34.8166 16.296ZM19.9999 26.6627C18.6814 26.6627 17.3924 26.2717 16.2961 25.5391C15.1998 24.8066 14.3453 23.7654 13.8407 22.5472C13.3361 21.329 13.2041 19.9886 13.4613 18.6954C13.7186 17.4022 14.3535 16.2143 15.2859 15.2819C16.2182 14.3496 17.4061 13.7147 18.6993 13.4574C19.9925 13.2002 21.3329 13.3322 22.5511 13.8368C23.7693 14.3414 24.8105 15.1959 25.543 16.2922C26.2756 17.3885 26.6666 18.6774 26.6666 19.996C26.6666 21.7641 25.9642 23.4598 24.7139 24.71C23.4637 25.9603 21.768 26.6627 19.9999 26.6627Z" fill="black"/>
</svg>
